<svg xmlns="http://www.w3.org/2000/svg" viewBox="0 0 806.95 126.85">
  <g id="Layer_2" data-name="Layer 2">
    <g id="Layer_1-2" data-name="Layer 1">
      <g>
        <path d="M162.06,43.83H172v33.5a17.51,17.51,0,0,0,.76,6.13,6.09,6.09,0,0,0,2.5,2.87,7.93,7.93,0,0,0,4.21,1.07,8.16,8.16,0,0,0,4.49-1.2,6.25,6.25,0,0,0,2.61-3q.72-1.84.72-7.06V43.83h9.9V74.72q0,7.82-.88,10.85a16.66,16.66,0,0,1-9.09,10A19.29,19.29,0,0,1,179.64,97a18.27,18.27,0,0,1-9.81-2.59,15.14,15.14,0,0,1-6-6.48q-1.8-3.9-1.8-13.16Z"/>
        <path d="M209.27,43.83h10.45q8.58,0,12.22,1.53a12.53,12.53,0,0,1,5.86,5.09A15.58,15.58,0,0,1,240,58.87a14.36,14.36,0,0,1-2.45,8.54,14.88,14.88,0,0,1-7.38,5.2l12.28,23H231.68L220,73.7h-.9V95.64h-9.86Zm9.86,20.25h3.09q4.71,0,6.48-1.23a4.66,4.66,0,0,0,1.77-4.1,5,5,0,0,0-.88-3,4.91,4.91,0,0,0-2.35-1.8,18,18,0,0,0-5.41-.55h-2.7Z"/>
        <path d="M250.45,43.83h9.86V86.24h14.37v9.4H250.45Z"/>
        <path d="M329.56,50.87l-7.3,6.45Q318.4,52,314.42,52a4.76,4.76,0,0,0-3.17,1A3,3,0,0,0,310,55.35a4.05,4.05,0,0,0,.88,2.46,67.33,67.33,0,0,0,7.24,6.66q5.64,4.73,6.84,6a20.7,20.7,0,0,1,4.26,5.8,14.51,14.51,0,0,1,1.25,6,13.84,13.84,0,0,1-4.41,10.53q-4.41,4.15-11.5,4.16a17.08,17.08,0,0,1-9.64-2.72,21.38,21.38,0,0,1-7-8.52l8.29-5q3.75,6.87,8.61,6.87a6.36,6.36,0,0,0,4.27-1.48,4.42,4.42,0,0,0,1.73-3.42,5.88,5.88,0,0,0-1.3-3.52,37.78,37.78,0,0,0-5.76-5.39q-8.46-6.9-10.94-10.66a13.57,13.57,0,0,1-2.47-7.48,12.23,12.23,0,0,1,4.11-9.25,14.26,14.26,0,0,1,10.14-3.86,16,16,0,0,1,7.39,1.8A27,27,0,0,1,329.56,50.87Z"/>
        <path d="M338.86,42.52h9.55V61.19a21.94,21.94,0,0,1,5.67-3.64,14.64,14.64,0,0,1,5.78-1.22,13,13,0,0,1,9.61,4q3.34,3.42,3.35,10V95.64h-9.48V78.84a41.79,41.79,0,0,0-.63-9,6.31,6.31,0,0,0-2.17-3.52,6.1,6.1,0,0,0-3.78-1.16,7.09,7.09,0,0,0-5,1.94,10.24,10.24,0,0,0-2.91,5.28,44,44,0,0,0-.42,7.89V95.64h-9.55Z"/>
        <path d="M400.12,56.33A20.42,20.42,0,0,1,410.32,59a19.89,19.89,0,0,1,10.12,17.41,20.1,20.1,0,0,1-2.69,10.14A19.41,19.41,0,0,1,410.41,94a20.33,20.33,0,0,1-10.26,2.66,19.12,19.12,0,0,1-14.07-5.86,20.31,20.31,0,0,1,.76-29.22A19.23,19.23,0,0,1,400.12,56.33Zm.16,9.06a9.9,9.9,0,0,0-7.47,3.11,11.11,11.11,0,0,0-3,8,11.27,11.27,0,0,0,2.95,8.1,9.83,9.83,0,0,0,7.46,3.1,10,10,0,0,0,7.52-3.13,11.19,11.19,0,0,0,3-8.07,11.12,11.12,0,0,0-2.95-8A9.93,9.93,0,0,0,400.28,65.39Z"/>
        <path d="M426.05,57.32h8.24v4.82a10.31,10.31,0,0,1,3.56-4.33,8.63,8.63,0,0,1,4.86-1.48,9,9,0,0,1,3.91,1l-3,8.28a6.49,6.49,0,0,0-2.78-.85q-2.22,0-3.75,2.75t-1.53,10.78l0,1.86v15.5h-9.54Z"/>
        <path d="M452.54,43.19h9.61V57.32h5.71V65.6h-5.71v30h-9.61v-30H447.6V57.32h4.94Z"/>
        <path d="M511.4,79.26H480.51a10.23,10.23,0,0,0,3.57,6.5,11.23,11.23,0,0,0,7.42,2.42,12.82,12.82,0,0,0,9.26-3.77l8.1,3.8a19.1,19.1,0,0,1-7.25,6.36,22.77,22.77,0,0,1-10,2.06q-9,0-14.69-5.69a19.36,19.36,0,0,1-5.67-14.25,20,20,0,0,1,5.65-14.56A19,19,0,0,1,491,56.33q9,0,14.72,5.8t5.67,15.3Zm-9.62-7.57A9.61,9.61,0,0,0,498,66.48a10.89,10.89,0,0,0-6.51-2,11.5,11.5,0,0,0-7.05,2.25,12.58,12.58,0,0,0-3.53,5Z"/>
        <path d="M519.18,57.32h9.62v3.93a23.1,23.1,0,0,1,5.93-3.84,14.29,14.29,0,0,1,5.43-1.08,13.16,13.16,0,0,1,9.67,4q3.34,3.39,3.35,10V95.64h-9.52V78.86q0-6.85-.61-9.11a6.21,6.21,0,0,0-2.14-3.43,6,6,0,0,0-3.78-1.18,7.08,7.08,0,0,0-5,2,10.44,10.44,0,0,0-2.9,5.4,43.8,43.8,0,0,0-.42,7.78V95.64h-9.62Z"/>
        <path d="M600.87,79.26H570a10.27,10.27,0,0,0,3.57,6.5A11.23,11.23,0,0,0,581,88.18a12.82,12.82,0,0,0,9.26-3.77l8.1,3.8a19,19,0,0,1-7.25,6.36,22.77,22.77,0,0,1-10,2.06q-9,0-14.69-5.69a19.36,19.36,0,0,1-5.67-14.25,20,20,0,0,1,5.65-14.56,19,19,0,0,1,14.18-5.8q9.06,0,14.72,5.8t5.68,15.3Zm-9.62-7.57a9.6,9.6,0,0,0-3.75-5.21,10.89,10.89,0,0,0-6.51-2,11.51,11.51,0,0,0-7.06,2.25,12.58,12.58,0,0,0-3.53,5Z"/>
        <path d="M606.4,57.32h8.24v4.82a10.38,10.38,0,0,1,3.56-4.33,8.63,8.63,0,0,1,4.86-1.48,8.94,8.94,0,0,1,3.91,1l-3,8.28a6.57,6.57,0,0,0-2.78-.85q-2.22,0-3.76,2.75t-1.53,10.78l0,1.86v15.5H606.4Z"/>
      </g>
      <path d="M40.2,63.33,36,60.17l13.71-19,76.85,54.93a23.51,23.51,0,0,1-32.68,5.27Z" style="fill: #d0d0d9"/>
      <path d="M126.54,96.12l-6.32-4.22a22.16,22.16,0,0,1-26.36-1.05L41.25,52.79,36,60.17l4.22,3.16,53.77,38a22.54,22.54,0,0,0,31.66-3.91C126,97,126.25,96.55,126.54,96.12Z" style="fill: #bfbfc7"/>
      <path d="M37,65.55l13.7,18.87,75.8-54.72a23.51,23.51,0,0,0-32.68-5.27Z" style="fill: #ededf8"/>
      <path d="M126.54,29.7a27.79,27.79,0,0,0-6.32-5.27L45.37,78.2,35.88,65.55,49.69,84.42Z" style="fill: #dadae3"/>
      <path d="M36,122.47a22.24,22.24,0,0,0,5.78-30.92c-.17-.24-.33-.47-.51-.7l9.49-6.33L37,65.55,12.79,83.47,9.63,85.58A22.34,22.34,0,0,0,4,116.67c.12.18.25.36.38.53A23.39,23.39,0,0,0,36,122.47ZM12.79,110.88a11.17,11.17,0,0,1,1.5-15.73A11.63,11.63,0,0,1,16,94a11.81,11.81,0,0,1,16.61,1.77l.26.34a12.43,12.43,0,0,1-2.45,17.42c-.23.18-.47.34-.71.5a11.17,11.17,0,0,1-15.73-1.5A11.63,11.63,0,0,1,12.79,110.88Z" style="fill: #1890ff"/>
      <path d="M36,122.47a22.13,22.13,0,0,0,8.44-23.19A23.44,23.44,0,0,1,36,113a31.42,31.42,0,0,1-10.54,4.21,6.73,6.73,0,0,1-6.32,0,20.44,20.44,0,0,1-14.76-9.48,16.9,16.9,0,0,1-3.17-8.44A22.07,22.07,0,0,0,5.41,117.2a21.08,21.08,0,0,0,29.15,6.28C35.05,123.16,35.52,122.83,36,122.47Z" style="fill: #1890ff"/>
      <path d="M50.74,42.25,42.2,36A23.19,23.19,0,0,0,36.93,4.4,22.24,22.24,0,0,0,5.81,9c-.18.23-.34.46-.51.7A22.26,22.26,0,0,0,9.87,40.8l.71.5,3.16,2.11L38,61.33ZM16,32.76a11.16,11.16,0,0,1-3.16-16.87,13.18,13.18,0,0,1,17.92-3.16,12.33,12.33,0,0,1,3.79,17,10.32,10.32,0,0,1-.63.89A13.17,13.17,0,0,1,16,32.86Z" style="fill: #1890ff"/>
      <path d="M42.2,55.11,18.53,37.48l-3.09-2.07a23.94,23.94,0,0,1-7.1-29c-1,1-2.06,3.11-3.09,4.15A22,22,0,0,0,9.71,41.14c.22.17.45.33.68.49l3.09,2.07L37.16,61.33Z" style="fill: #1890ff"/>
      <circle cx="59.18" cy="63.44" r="4.22" style="fill: #797a84"/>
      <g>
        <circle cx="768.67" cy="67.66" r="38.28" style="fill: #1890ff;opacity: 0.4"/>
        <path d="M793,58.69a26.85,26.85,0,0,1-26.33,22.62,19.77,19.77,0,0,1-3.84-.23A11.81,11.81,0,0,1,753.06,70a11.55,11.55,0,0,1,9.16-11.17,10.3,10.3,0,0,1,4.42,0,11.56,11.56,0,0,1,9.32,11c0,1.9-.78,3.56-2.47,3.61s-2.65-1.29-2.65-3V65.56a3,3,0,0,0-2.93-3h-4a7,7,0,1,0,5.19,11.73l.15-.21.14.24a5,5,0,0,0,4.24,2,5.61,5.61,0,0,0,5.2-5.87,14.68,14.68,0,0,0-.42-3.73,14.38,14.38,0,0,0-13.21-11.27,12.84,12.84,0,0,0-4.61.51,14.36,14.36,0,0,0,3.68,28.14,21.28,21.28,0,0,0,2.25.07,30.42,30.42,0,0,0,16.35-4.88c.07,0,.14.05.09.12a24,24,0,0,1-18.69,7.65,16.86,16.86,0,0,1-17.17-17.31,17.47,17.47,0,0,1,7-14,17.11,17.11,0,0,1,10.09-3.33h5.43a15.27,15.27,0,0,0,11.26-5,.19.19,0,0,1,.12-.07.21.21,0,0,1,.23.1.31.31,0,0,1,0,.13,15.39,15.39,0,0,1-2.37,6.85.21.21,0,0,0,.23.31,16.41,16.41,0,0,0,11.41-9.41.27.27,0,0,1,.11-.1.28.28,0,0,1,.28,0,.35.35,0,0,1,.11.1,20.86,20.86,0,0,1,2,13.26ZM763.48,65.5A4.47,4.47,0,0,0,759,70a4.21,4.21,0,0,0,.09.87,4.47,4.47,0,0,0,8.77,0A5,5,0,0,0,768,70V65.8a.32.32,0,0,0-.3-.31Z" style="fill: #5e379b"/>
      </g>
      <g>
        <circle cx="677.23" cy="67.66" r="38.28" style="fill: #1890ff;opacity: 0.4"/>
        <g>
          <path d="M651.38,53.05a1.91,1.91,0,0,0-.87,1.5V83.09a1.89,1.89,0,0,0,.87,1.49l25,14.28a2,2,0,0,0,1.74,0l25-14.28a1.89,1.89,0,0,0,.87-1.49V54.55a1.91,1.91,0,0,0-.87-1.5l-25-14.28a2,2,0,0,0-1.74,0Z" style="fill: #5e379b"/>
          <g>
            <g style="opacity: 0.2">
              <path d="M690.23,81.71a1.92,1.92,0,0,1-.54,1.08,15.61,15.61,0,0,1-12.59,5.64,16.81,16.81,0,0,1-13-5.48,19,19,0,0,1-4.87-13.39A19.54,19.54,0,0,1,664,56.27a16,16,0,0,1,12.65-5.72q8.34,0,13.08,5.12a1.61,1.61,0,0,1,.52,1,16.1,16.1,0,0,1-1.79,3.63,21.52,21.52,0,0,1-2.26,3.53.67.67,0,0,1-.51.2,6.43,6.43,0,0,1-1.29-1,14.19,14.19,0,0,0-2.73-1.93,9.32,9.32,0,0,0-4.22-1,7.34,7.34,0,0,0-6,2.84,10.1,10.1,0,0,0-2.09,6.48,10.29,10.29,0,0,0,2.09,6.57,7.28,7.28,0,0,0,6,2.89,9.63,9.63,0,0,0,4.25-1,13.38,13.38,0,0,0,2.68-1.8,6,6,0,0,1,1.26-1,.7.7,0,0,1,.51.28c.28.31,1,1.38,2.24,3.22A18.38,18.38,0,0,1,690.23,81.71Z" style="stroke: #000;stroke-miterlimit: 10"/>
            </g>
            <path d="M691.23,80.71a1.92,1.92,0,0,1-.54,1.08,15.61,15.61,0,0,1-12.59,5.64,16.81,16.81,0,0,1-13-5.48,19,19,0,0,1-4.87-13.39A19.54,19.54,0,0,1,665,55.27a16,16,0,0,1,12.65-5.72q8.34,0,13.08,5.12a1.61,1.61,0,0,1,.52,1,16.1,16.1,0,0,1-1.79,3.63,21.52,21.52,0,0,1-2.26,3.53.67.67,0,0,1-.51.2,6.43,6.43,0,0,1-1.29-1,14.19,14.19,0,0,0-2.73-1.93,9.32,9.32,0,0,0-4.22-1,7.34,7.34,0,0,0-6,2.84,10.1,10.1,0,0,0-2.09,6.48,10.29,10.29,0,0,0,2.09,6.57,7.28,7.28,0,0,0,6,2.89,9.63,9.63,0,0,0,4.25-1,13.38,13.38,0,0,0,2.68-1.8,6,6,0,0,1,1.26-1,.7.7,0,0,1,.51.28c.28.31,1,1.38,2.24,3.22A18.38,18.38,0,0,1,691.23,80.71Z" style="fill: #fff;stroke: #fff;stroke-miterlimit: 10"/>
          </g>
          <g>
            <g style="opacity: 0.2">
              <path d="M688.13,67h2.27l.62-2.81h1.39L691.79,67h2.61l.61-2.81h1.39L695.79,67h1.26v1.4h-1.52l-.46,2.23h2V72H694.8l-.6,2.79h-1.4l.61-2.79h-2.64l-.58,2.79h-1.4l.6-2.79h-1.26V70.63h1.54l.47-2.23h-2Zm3.4,1.4-.47,2.22h2.62l.46-2.22Z"/>
            </g>
            <path d="M689.13,66h2.27l.62-2.81h1.39L692.79,66h2.61l.61-2.81h1.39L696.79,66h1.26v1.4h-1.52l-.46,2.23h2V71H695.8l-.6,2.79h-1.4l.61-2.79h-2.64l-.58,2.79h-1.4l.6-2.79h-1.26V69.63h1.54l.47-2.23h-2Zm3.4,1.4-.47,2.22h2.62l.46-2.22Z" style="fill: #fff"/>
          </g>
        </g>
      </g>
    </g>
  </g>
</svg>
