<svg xmlns="http://www.w3.org/2000/svg" viewBox="0 0 759.41 81.93">
  <g style="isolation: isolate">
    <g id="Layer_2" data-name="Layer 2">
      <g id="Layer_1-2" data-name="Layer 1">
        <g id="Layer_2-2" data-name="Layer 2">
          <g id="Layer_1-2-2" data-name="Layer 1-2">
            <g>
              <path d="M105.54,12.71h10v33.5a17.93,17.93,0,0,0,.75,6.13,6.14,6.14,0,0,0,2.45,2.87,7.71,7.71,0,0,0,4.13,1.07,8,8,0,0,0,4.41-1.2,6.26,6.26,0,0,0,2.56-3q.7-1.84.7-7.06V12.71h10V43.6q0,7.82-.87,10.85a16.66,16.66,0,0,1-9,10A19.13,19.13,0,0,1,123,65.88a18.14,18.14,0,0,1-9.76-2.59,15.07,15.07,0,0,1-6-6.48q-1.8-3.9-1.8-13.16Z" style="fill: #4c85fb"/>
              <path d="M152.54,12.71h10.34q8.61,0,12.27,1.53A12.58,12.58,0,0,1,181,19.36a15.59,15.59,0,0,1,2.21,8.45,14.38,14.38,0,0,1-2.46,8.58,15,15,0,0,1-7.41,5.22l12.33,23.1H175.15l-11.73-22h-.91v22h-10Zm10,20h3.19c3.23,0,5.46-.43,6.67-1.27a4.8,4.8,0,0,0,1.82-4.22,5,5,0,0,0-3.32-4.95,18.37,18.37,0,0,0-5.57-.56h-2.79Z" style="fill: #4c85fb"/>
              <path d="M193.51,12.71h10v42h14v10h-24Z" style="fill: #4c85fb"/>
              <path d="M272.76,19.39l-7.3,6.45q-3.85-5.31-7.84-5.32a4.84,4.84,0,0,0-3.17,1,3,3,0,0,0-1.25,2.35,4.12,4.12,0,0,0,.88,2.46A67.07,67.07,0,0,0,261.32,33q5.64,4.74,6.84,6a20.75,20.75,0,0,1,4.26,5.8,14.45,14.45,0,0,1,1.25,6,13.79,13.79,0,0,1-4.41,10.53q-4.41,4.16-11.5,4.16a17.06,17.06,0,0,1-9.64-2.72,21.35,21.35,0,0,1-7-8.52l8.29-5q3.75,6.87,8.61,6.87a6.32,6.32,0,0,0,4.27-1.48A4.37,4.37,0,0,0,264,51.21a5.82,5.82,0,0,0-1.3-3.52A37.73,37.73,0,0,0,257,42.3Q248.5,35.4,246,31.64a13.61,13.61,0,0,1-2.47-7.48,12.25,12.25,0,0,1,4.11-9.25,14.28,14.28,0,0,1,10.14-3.86,16.07,16.07,0,0,1,7.39,1.8A27,27,0,0,1,272.76,19.39Z" style="fill: #4c85fb"/>
              <path d="M281.49,10.71h10V29.33a22,22,0,0,1,5.58-3.63,14.27,14.27,0,0,1,5.68-1.21,12.65,12.65,0,0,1,9.45,4q3.28,3.4,3.29,10V63.71h-9V46.91a41.12,41.12,0,0,0-.63-9,6.29,6.29,0,0,0-2.18-3.52,6.11,6.11,0,0,0-3.81-1.16,7.13,7.13,0,0,0-5,1.94,10.19,10.19,0,0,0-2.92,5.28,44.28,44.28,0,0,0-.43,7.89V63.71h-10Z" style="fill: #4c85fb"/>
              <path d="M343.32,24.85a20.55,20.55,0,0,1,10.2,2.67A20.17,20.17,0,0,1,361,55.07a19.25,19.25,0,0,1-7.34,7.45,20.25,20.25,0,0,1-10.26,2.66,19.09,19.09,0,0,1-14.07-5.86,20.31,20.31,0,0,1,.24-28.72l.52-.5A19.29,19.29,0,0,1,343.32,24.85Zm.16,9.06A9.94,9.94,0,0,0,336,37a11.16,11.16,0,0,0-3,8,11.33,11.33,0,0,0,2.95,8.1,9.8,9.8,0,0,0,7.46,3.1,9.93,9.93,0,0,0,7.52-3.13,11.14,11.14,0,0,0,3-8.07A11.11,11.11,0,0,0,351,37,9.92,9.92,0,0,0,343.48,33.91Z" style="fill: #4c85fb"/>
              <path d="M368.55,25.71h9v4.95a10.23,10.23,0,0,1,3.54-4.33,8.69,8.69,0,0,1,4.86-1.48,9.14,9.14,0,0,1,3.91,1l-3,8.28a6.49,6.49,0,0,0-2.78-.85q-2.22,0-3.75,2.75c-1,1.84-1.78,10.78-1.78,10.78v16.9h-10Z" style="fill: #4c85fb"/>
              <path d="M395.51,11.71h10v14h6v8h-6v30h-10v-30h-5v-8h5Z" style="fill: #4c85fb"/>
              <path d="M454.52,47.71H423.63a10.29,10.29,0,0,0,3.57,6.5,11.32,11.32,0,0,0,7.42,2.42,12.83,12.83,0,0,0,9.26-3.77l8.1,3.8A19.1,19.1,0,0,1,444.73,63a22.8,22.8,0,0,1-10,2.06q-9,0-14.69-5.69a19.39,19.39,0,0,1-5.67-14.25A20.05,20.05,0,0,1,420,30.58a19,19,0,0,1,14.1-5.8q9,0,14.72,5.8t5.67,15.3Zm-9.54-7a9.55,9.55,0,0,0-3.78-5.21,10.83,10.83,0,0,0-6.51-2,11.47,11.47,0,0,0-7.05,2.25,12.62,12.62,0,0,0-3.53,5Z" style="fill: #4c85fb"/>
              <path d="M462.51,25.71h10V29.6a22.75,22.75,0,0,1,5.84-3.8,13.85,13.85,0,0,1,5.35-1.07,12.92,12.92,0,0,1,9.52,4q3.28,3.36,3.29,9.92v25.1h-10V46.93q0-6.85-.61-9.11a6.26,6.26,0,0,0-2.16-3.43,6.08,6.08,0,0,0-3.82-1.18,7.16,7.16,0,0,0-5.05,2,10.42,10.42,0,0,0-2.93,5.4,43.06,43.06,0,0,0-.43,7.78V63.71h-9Z" style="fill: #4c85fb"/>
              <path d="M544.07,47.71H513.2a10.34,10.34,0,0,0,3.57,6.5,11.24,11.24,0,0,0,7.43,2.42,12.83,12.83,0,0,0,9.26-3.77l8.1,3.8A18.93,18.93,0,0,1,534.31,63a22.8,22.8,0,0,1-10,2.06q-9,0-14.69-5.69A19.39,19.39,0,0,1,504,45.14a20.05,20.05,0,0,1,5.65-14.56,19,19,0,0,1,14.18-5.8q9.06,0,14.72,5.8t5.68,15.3Zm-9.62-7a9.5,9.5,0,0,0-3.75-5.21,10.83,10.83,0,0,0-6.51-2,11.52,11.52,0,0,0-7.06,2.25,12.62,12.62,0,0,0-3.53,5Z" style="fill: #4c85fb"/>
              <path d="M549.51,25.71h8v4.95a14.68,14.68,0,0,1,3.89-4.33,8.69,8.69,0,0,1,4.86-1.48,9.14,9.14,0,0,1,3.91,1l-3,8.28a6.78,6.78,0,0,0-2.78-.85q-2.22,0-3.76,2.75c-1,1.84-2.12,10.78-2.12,10.78v16.9h-9Z" style="fill: #4c85fb"/>
            </g>
            <path d="M26,40.9l-2.71-2L32.1,26.58,81.73,62.06a15.17,15.17,0,0,1-21.1,3.41Z" style="fill: #d0d0d9"/>
            <path d="M81.72,62.08l-4.08-2.73a14.32,14.32,0,0,1-17-.68l-34-24.58-3.39,4.77,2.73,2L60.7,65.44a14.55,14.55,0,0,0,20.43-2.51l0,0C81.37,62.64,81.53,62.35,81.72,62.08Z" style="fill: #bfbfc7"/>
            <path d="M23.89,42.33l8.85,12.19,49-35.35a15.19,15.19,0,0,0-21.11-3.4Z" style="fill: #ededf8"/>
            <path d="M81.72,19.17a18,18,0,0,0-4.08-3.4L29.29,50.5l-6.13-8.17,8.92,12.19Z" style="fill: #dadae3"/>
            <path d="M23.24,79.09a14.35,14.35,0,0,0,3.74-20h0l-.33-.45,6.13-4.09L23.89,42.33,8.25,53.9l-2,1.37A14.43,14.43,0,0,0,2.57,75.35h0c.08.11.16.23.25.34A15.09,15.09,0,0,0,23.24,79.09Zm-15-7.48a7.21,7.21,0,0,1,1-10.16h0a7.3,7.3,0,0,1,1.1-.74,7.63,7.63,0,0,1,10.73,1.14h0l.17.22a8,8,0,0,1-1.57,11.24h0c-.15.12-.31.22-.46.32A7.22,7.22,0,0,1,9,72.68H9A7.36,7.36,0,0,1,8.25,71.61Z" style="fill: #1890ff"/>
            <path d="M23.24,79.09a14.27,14.27,0,0,0,5.45-15A15.13,15.13,0,0,1,23.24,73a20.36,20.36,0,0,1-6.81,2.72,4.33,4.33,0,0,1-4.08,0,13.22,13.22,0,0,1-9.53-6.13,11,11,0,0,1-2-5.45A14.28,14.28,0,0,0,3.48,75.69a13.62,13.62,0,0,0,18.83,4.06h0C22.63,79.54,22.93,79.33,23.24,79.09Z" style="fill: #1890ff"/>
            <path d="M32.76,27.28l-5.51-4A15,15,0,0,0,23.84,2.83a14.36,14.36,0,0,0-20.09,3h0l-.33.46a14.37,14.37,0,0,0,3,20.08l.46.33,2,1.36L24.53,39.6ZM10.51,21.15a7.21,7.21,0,0,1-2.78-9.8,6.74,6.74,0,0,1,.74-1.09,8.51,8.51,0,0,1,11.58-2,8,8,0,0,1,2.45,11c-.13.2-.27.39-.41.58a8.52,8.52,0,0,1-11.58,1.45Z" style="fill: #1890ff"/>
            <path d="M27.25,35.59,12,24.2l-2-1.34A15.46,15.46,0,0,1,5.38,4.13c-.65.65-1.33,2-2,2.68A14.21,14.21,0,0,0,6.26,26.56l.44.32,2,1.34L24,39.6Z" style="fill: #1890ff"/>
            <circle cx="38.21" cy="40.97" r="2.73" style="fill: #797a84"/>
            <g>
              <circle cx="721.13" cy="39.81" r="38.28" style="fill: #1890ff;opacity: 0.4000000059604645;isolation: isolate"/>
              <g>
                <g style="opacity: 0.25;mix-blend-mode: multiply">
                  <path d="M746.51,31.89A26.6,26.6,0,0,1,720.37,54.2a19.46,19.46,0,0,1-3.81-.23A11.68,11.68,0,0,1,706.86,43,11.4,11.4,0,0,1,716,32a10.11,10.11,0,0,1,4.38,0,11.43,11.43,0,0,1,9.26,10.85c0,1.87-.78,3.51-2.45,3.56s-2.64-1.28-2.64-3V38.67a3,3,0,0,0-2.9-3h-4a6.9,6.9,0,1,0,5.16,11.56l.15-.2.13.23a5,5,0,0,0,4.21,2,5.56,5.56,0,0,0,5.17-5.79A14.64,14.64,0,0,0,718.92,28.7a12.87,12.87,0,0,0-4.58.5A14.15,14.15,0,0,0,718,57c.74.06,1.49.08,2.24.07a30.32,30.32,0,0,0,16.23-4.81c.07,0,.14,0,.09.11A23.9,23.9,0,0,1,718,59.87a16.69,16.69,0,0,1-17-16.31c0-.26,0-.51,0-.76a17,17,0,0,1,17-17.09h5.39a15.19,15.19,0,0,0,11.18-4.93.15.15,0,0,1,.12-.07.21.21,0,0,1,.23.1.24.24,0,0,1,0,.12,15.13,15.13,0,0,1-2.35,6.76.2.2,0,0,0,.07.28.16.16,0,0,0,.15,0A16.24,16.24,0,0,0,744,18.71a.31.31,0,0,1,.11-.09.28.28,0,0,1,.28,0,.31.31,0,0,1,.11.09,20.45,20.45,0,0,1,2,13.08ZM717,38.72a4.47,4.47,0,0,0-4.48,4.46v0A4.57,4.57,0,0,0,717,47.65a2.42,2.42,0,0,0,.66,0,4.45,4.45,0,0,0,3.68-3.54,4.38,4.38,0,0,0,.14-.87V39a.31.31,0,0,0-.3-.31Z"/>
                </g>
                <path d="M745.51,30.89A26.6,26.6,0,0,1,719.37,53.2a19.46,19.46,0,0,1-3.81-.23A11.68,11.68,0,0,1,705.86,42,11.4,11.4,0,0,1,715,31a10.11,10.11,0,0,1,4.38,0,11.43,11.43,0,0,1,9.26,10.85c0,1.87-.78,3.51-2.45,3.56s-2.64-1.28-2.64-3V37.67a3,3,0,0,0-2.9-3h-4a6.9,6.9,0,1,0,5.16,11.56l.15-.2.13.23a5,5,0,0,0,4.21,2,5.56,5.56,0,0,0,5.17-5.79A14.64,14.64,0,0,0,717.92,27.7a12.87,12.87,0,0,0-4.58.5A14.15,14.15,0,0,0,717,56c.74.06,1.49.08,2.24.07a30.32,30.32,0,0,0,16.23-4.81c.07,0,.14,0,.09.11A23.9,23.9,0,0,1,717,58.87a16.69,16.69,0,0,1-17-16.31c0-.26,0-.51,0-.76a17,17,0,0,1,17-17.09h5.39a15.19,15.19,0,0,0,11.18-4.93.15.15,0,0,1,.12-.07.21.21,0,0,1,.23.1.24.24,0,0,1,0,.12,15.13,15.13,0,0,1-2.35,6.76.2.2,0,0,0,.07.28.16.16,0,0,0,.15,0A16.24,16.24,0,0,0,743,17.71a.31.31,0,0,1,.11-.09.28.28,0,0,1,.28,0,.31.31,0,0,1,.11.09,20.45,20.45,0,0,1,2,13.08ZM716,37.72a4.47,4.47,0,0,0-4.48,4.46v0A4.57,4.57,0,0,0,716,46.65a2.42,2.42,0,0,0,.66,0,4.45,4.45,0,0,0,3.68-3.54,4.38,4.38,0,0,0,.14-.87V38a.31.31,0,0,0-.3-.31Z" style="fill: #5e379b"/>
              </g>
            </g>
            <g>
              <circle cx="629.69" cy="39.81" r="38.28" style="fill: #1890ff;opacity: 0.4000000059604645;isolation: isolate"/>
              <g>
                <path d="M604.38,25.34a1.92,1.92,0,0,0-.87,1.49V55.11a1.91,1.91,0,0,0,.87,1.48l24.77,14.15a2,2,0,0,0,1.73,0l24.77-14.15a1.88,1.88,0,0,0,.86-1.48V26.83a1.88,1.88,0,0,0-.86-1.49L630.88,11.19a2,2,0,0,0-1.73,0Z" style="fill: #5e379b"/>
                <g>
                  <g style="opacity: 0.20000000298023224">
                    <path d="M642.69,53.86a1.92,1.92,0,0,1-.54,1.08,15.63,15.63,0,0,1-12.59,5.64,16.82,16.82,0,0,1-13-5.48,19,19,0,0,1-4.87-13.39,19.46,19.46,0,0,1,4.77-13.29,16,16,0,0,1,12.65-5.72q8.34,0,13.08,5.12a1.65,1.65,0,0,1,.52,1,16.79,16.79,0,0,1-1.79,3.63A22.05,22.05,0,0,1,638.66,36a.7.7,0,0,1-.51.2,6.64,6.64,0,0,1-1.29-1,14,14,0,0,0-2.73-1.93,9.39,9.39,0,0,0-4.22-1,7.31,7.31,0,0,0-6,2.84,10,10,0,0,0-2.09,6.48,10.26,10.26,0,0,0,2.09,6.57,7.29,7.29,0,0,0,6,2.89,9.82,9.82,0,0,0,4.25-1,13.81,13.81,0,0,0,2.68-1.8,5.55,5.55,0,0,1,1.26-1,.71.71,0,0,1,.51.28c.28.31,1,1.38,2.24,3.22A18.88,18.88,0,0,1,642.69,53.86Z" style="stroke: #000;stroke-miterlimit: 10"/>
                  </g>
                  <path d="M643.69,52.86a1.92,1.92,0,0,1-.54,1.08,15.63,15.63,0,0,1-12.59,5.64,16.82,16.82,0,0,1-13-5.48,19,19,0,0,1-4.87-13.39,19.46,19.46,0,0,1,4.77-13.29,16,16,0,0,1,12.65-5.72q8.34,0,13.08,5.12a1.65,1.65,0,0,1,.52,1,16.79,16.79,0,0,1-1.79,3.63A22.05,22.05,0,0,1,639.66,35a.7.7,0,0,1-.51.2,6.64,6.64,0,0,1-1.29-1,14,14,0,0,0-2.73-1.93,9.39,9.39,0,0,0-4.22-1,7.31,7.31,0,0,0-6,2.84,10,10,0,0,0-2.09,6.48,10.26,10.26,0,0,0,2.09,6.57,7.29,7.29,0,0,0,6,2.89,9.82,9.82,0,0,0,4.25-1,13.81,13.81,0,0,0,2.68-1.8,5.55,5.55,0,0,1,1.26-1,.71.71,0,0,1,.51.28c.28.31,1,1.38,2.24,3.22A18.88,18.88,0,0,1,643.69,52.86Z" style="fill: #fff;stroke: #fff;stroke-miterlimit: 10"/>
                </g>
                <g>
                  <g style="opacity: 0.20000000298023224">
                    <path d="M641.51,39.71h1.35l.62-3h1.39l-.62,3h2.61l.61-3h1.39l-.61,3h1.26v1H648l-.46,2h3v1h-3.25l-.6,3h-1.4l.61-3h-2.64l-.58,3h-1.4l.6-3h-1.34v-1h1.62l.47-2h-1.09Zm2.58,1-.42,2H646l.41-2Z"/>
                  </g>
                  <path d="M642.51,38.71h1.35l.62-3h1.39l-.62,3h2.61l.61-3h1.39l-.61,3h1.26v1H649l-.46,2h3v1h-3.25l-.6,3h-1.4l.61-3h-2.64l-.58,3h-1.4l.6-3h-1.34v-1h1.62l.47-2h-1.09Zm2.58,1-.42,2H647l.41-2Z" style="fill: #fff"/>
                </g>
              </g>
            </g>
          </g>
        </g>
      </g>
    </g>
  </g>
</svg>
